<svg width="24" height="24" viewBox="0 0 24 24" fill="none" xmlns="http://www.w3.org/2000/svg">
<path d="M20.0001 3C18.8977 2.99801 18.0025 3.89005 18.0005 4.99244C17.9995 5.51202 18.2012 6.01151 18.5627 6.38472L14.9087 13.6915C14.8286 13.6782 14.7478 13.6699 14.6667 13.6668C14.4085 13.6673 14.1529 13.7181 13.9141 13.8161L11.0774 10.6261C11.2429 10.3333 11.3311 10.0031 11.3334 9.66678C11.3334 8.5622 10.4379 7.66676 9.33336 7.66676C8.22878 7.66676 7.33334 8.5622 7.33334 9.66678C7.3353 10.1442 7.50955 10.6049 7.82401 10.9641L4.3573 17.0361C4.23949 17.0135 4.11992 17.0014 3.99996 17.0001C2.89538 17.0001 1.99994 17.8956 1.99994 19.0001C1.99994 20.1047 2.89538 21.0002 3.99996 21.0002C5.10453 21.0002 5.99997 20.1047 5.99997 19.0001C5.99802 18.5227 5.82376 18.062 5.5093 17.7028L8.97601 11.6307C9.34816 11.7043 9.73379 11.6648 10.0834 11.5174L12.9201 14.7074C12.7554 15.0005 12.6682 15.3307 12.6667 15.6668C12.6634 16.7714 13.5561 17.6695 14.6607 17.6728C15.7653 17.6761 16.6634 16.7834 16.6667 15.6789C16.6683 15.1578 16.4664 14.6566 16.1041 14.2821L19.7581 6.97539C19.8382 6.98867 19.919 6.99691 20.0001 7.00004C21.1047 7.00004 22.0001 6.1046 22.0001 5.00002C22.0001 3.89544 21.1047 3 20.0001 3ZM3.99996 19.6668C3.63175 19.6668 3.33327 19.3683 3.33327 19.0001C3.33327 18.6319 3.63175 18.3334 3.99996 18.3334C4.36816 18.3334 4.66664 18.6319 4.66664 19.0001C4.66664 19.3683 4.36816 19.6668 3.99996 19.6668ZM9.33332 10.3334C8.96511 10.3334 8.66663 10.0349 8.66663 9.6667C8.66663 9.29849 8.96511 9.00001 9.33332 9.00001C9.70153 9.00001 10 9.29849 10 9.6667C10 10.0349 9.70153 10.3334 9.33332 10.3334ZM14.6667 16.3334C14.2985 16.3334 14 16.035 14 15.6667C14 15.2985 14.2985 15.0001 14.6667 15.0001C15.0349 15.0001 15.3334 15.2985 15.3334 15.6667C15.3334 16.035 15.0349 16.3334 14.6667 16.3334ZM20.0001 5.6667C19.6319 5.6667 19.3334 5.36823 19.3334 5.00002C19.3334 4.63181 19.6319 4.33333 20.0001 4.33333C20.3683 4.33333 20.6668 4.63181 20.6668 5.00002C20.6668 5.36823 20.3683 5.6667 20.0001 5.6667Z" fill="white"/>
</svg>
