<svg width="24" height="24" viewBox="0 0 24 24" fill="none" xmlns="http://www.w3.org/2000/svg">
<path d="M11.8542 11.6341C13.1778 11.6341 14.3237 11.1594 15.2603 10.2228C16.1966 9.28636 16.6714 8.14058 16.6714 6.81688C16.6714 5.49364 16.1967 4.34771 15.2601 3.41098C14.3236 2.4747 13.1776 2 11.8542 2C10.5305 2 9.38476 2.4747 8.44833 3.41113C7.5119 4.34756 7.03705 5.49349 7.03705 6.81688C7.03705 8.14058 7.5119 9.28651 8.44833 10.2229C9.38506 11.1592 10.531 11.6341 11.8542 11.6341ZM9.27719 4.23983C9.99572 3.5213 10.8386 3.17202 11.8542 3.17202C12.8697 3.17202 13.7128 3.5213 14.4314 4.23983C15.15 4.95852 15.4994 5.80156 15.4994 6.81688C15.4994 7.8325 15.15 8.6754 14.4314 9.39408C13.7128 10.1128 12.8697 10.462 11.8542 10.462C10.8389 10.462 9.99602 10.1126 9.27719 9.39408C8.5585 8.67555 8.20907 7.8325 8.20907 6.81688C8.20907 5.80156 8.5585 4.95852 9.27719 4.23983Z" fill="white"/>
<path d="M20.283 17.379C20.256 16.9893 20.2014 16.5642 20.121 16.1153C20.0398 15.663 19.9353 15.2354 19.8101 14.8447C19.6807 14.4408 19.5051 14.0419 19.2877 13.6597C19.0623 13.2629 18.7974 12.9175 18.5002 12.6332C18.1894 12.3358 17.8088 12.0967 17.3687 11.9223C16.9302 11.7488 16.4442 11.6609 15.9243 11.6609C15.7202 11.6609 15.5227 11.7447 15.1414 11.9929C14.9067 12.146 14.6322 12.323 14.3258 12.5188C14.0638 12.6857 13.7089 12.8421 13.2705 12.9837C12.8428 13.1221 12.4086 13.1923 11.9798 13.1923C11.5513 13.1923 11.1171 13.1221 10.6891 12.9837C10.2511 12.8423 9.89607 12.6858 9.63454 12.5189C9.33104 12.325 9.05638 12.148 8.81819 11.9928C8.43718 11.7445 8.23973 11.6608 8.03557 11.6608C7.51555 11.6608 7.02972 11.7488 6.59133 11.9225C6.15157 12.0966 5.77087 12.3357 5.45974 12.6334C5.1625 12.9178 4.89761 13.2631 4.67239 13.6597C4.45526 14.0419 4.27948 14.4406 4.15008 14.8448C4.02511 15.2356 3.92059 15.663 3.83942 16.1153C3.75885 16.5636 3.70438 16.9888 3.67737 17.3794C3.65082 17.7614 3.63739 18.1589 3.63739 18.5605C3.63739 19.6045 3.96927 20.4497 4.62372 21.073C5.27008 21.6881 6.12518 21.9999 7.16537 21.9999H16.7955C17.8354 21.9999 18.6905 21.6881 19.337 21.073C19.9916 20.4501 20.3234 19.6046 20.3234 18.5603C20.3233 18.1573 20.3097 17.7598 20.283 17.379ZM18.5289 20.2238C18.1018 20.6303 17.5348 20.8279 16.7953 20.8279H7.16537C6.42577 20.8279 5.85876 20.6303 5.43182 20.224C5.01297 19.8253 4.80941 19.281 4.80941 18.5605C4.80941 18.1857 4.82177 17.8157 4.84649 17.4605C4.8706 17.112 4.91989 16.7291 4.99298 16.3223C5.06515 15.9206 5.15701 15.5435 5.26626 15.2022C5.37109 14.8749 5.51406 14.5508 5.69137 14.2386C5.86059 13.941 6.05529 13.6858 6.27013 13.4801C6.47109 13.2877 6.72439 13.1302 7.02285 13.0121C7.29888 12.9028 7.60909 12.843 7.94585 12.834C7.9869 12.8558 8.05999 12.8975 8.17839 12.9747C8.41933 13.1317 8.69704 13.3108 9.00404 13.5069C9.35011 13.7276 9.79597 13.9268 10.3287 14.0988C10.8732 14.2749 11.4287 14.3643 11.98 14.3643C12.5313 14.3643 13.0868 14.2749 13.6311 14.099C14.1642 13.9267 14.61 13.7276 14.9565 13.5066C15.2707 13.3058 15.5406 13.1319 15.7815 12.9747C15.8999 12.8976 15.973 12.8558 16.0141 12.834C16.351 12.843 16.6612 12.9028 16.9374 13.0121C17.2357 13.1302 17.489 13.2878 17.6899 13.4801C17.9048 13.6856 18.0995 13.9409 18.2687 14.2387C18.4462 14.5508 18.5893 14.875 18.694 15.202C18.8034 15.5438 18.8954 15.9207 18.9674 16.3222C19.0403 16.7297 19.0898 17.1127 19.1139 17.4606V17.4609C19.1388 17.8148 19.1513 18.1846 19.1514 18.5605C19.1513 19.2811 18.9477 19.8253 18.5289 20.2238Z" fill="white"/>
</svg>
