<svg width="24" height="24" viewBox="0 0 24 24" fill="none" xmlns="http://www.w3.org/2000/svg">
<path d="M21.4653 10.658C21.4647 10.6575 21.4643 10.6569 21.4638 10.6564L13.3418 2.53468C12.9956 2.18833 12.5353 1.99768 12.0457 1.99768C11.5561 1.99768 11.0958 2.18833 10.7494 2.53468L2.63163 10.6523C2.6289 10.6551 2.62601 10.658 2.62343 10.6607C1.9125 11.3757 1.91372 12.5358 2.62693 13.249C2.95277 13.575 3.38297 13.7637 3.8431 13.7836C3.86194 13.7854 3.88077 13.7863 3.89976 13.7863H4.22333V19.7633C4.22333 20.9462 5.18582 21.9086 6.36872 21.9086H9.54633C9.86853 21.9086 10.1297 21.6473 10.1297 21.3252V16.6392C10.1297 16.0994 10.5688 15.6604 11.1086 15.6604H12.9828C13.5225 15.6604 13.9615 16.0994 13.9615 16.6392V21.3252C13.9615 21.6473 14.2227 21.9086 14.5449 21.9086H17.7225C18.9055 21.9086 19.8679 20.9462 19.8679 19.7633V13.7863H20.168C20.6575 13.7863 21.1178 13.5957 21.4643 13.2492C22.1782 12.5349 22.1785 11.3727 21.4653 10.658ZM20.6393 12.4243C20.5133 12.5503 20.3459 12.6197 20.168 12.6197H19.2845C18.9624 12.6197 18.7012 12.8808 18.7012 13.203V19.7633C18.7012 20.3029 18.2622 20.7419 17.7225 20.7419H15.1282V16.6392C15.1282 15.4563 14.1659 14.4938 12.9828 14.4938H11.1086C9.9255 14.4938 8.96301 15.4563 8.96301 16.6392V20.7419H6.36872C5.82915 20.7419 5.38998 20.3029 5.38998 19.7633V13.203C5.38998 12.8808 5.12885 12.6197 4.80665 12.6197H3.93835C3.92923 12.6191 3.92027 12.6186 3.911 12.6185C3.73722 12.6154 3.57422 12.5465 3.45209 12.4242C3.19233 12.1644 3.19233 11.7417 3.45209 11.4818C3.45224 11.4818 3.45224 11.4816 3.45239 11.4814L3.45285 11.481L11.5746 3.35954C11.7004 3.2336 11.8676 3.16433 12.0457 3.16433C12.2236 3.16433 12.3908 3.2336 12.5167 3.35954L20.6367 11.4793C20.6379 11.4805 20.6393 11.4818 20.6405 11.483C20.8989 11.7432 20.8984 12.165 20.6393 12.4243Z" fill="white"/>
</svg>
