<svg width="10" height="18" viewBox="0 0 10 18" fill="none" xmlns="http://www.w3.org/2000/svg">
<path d="M8.93597 12.91C8.67507 12.6503 8.25307 12.6513 7.9934 12.9122L5.6665 15.2504V1.13525C5.6665 0.767144 5.36811 0.46875 5 0.46875C4.63189 0.46875 4.33349 0.767144 4.33349 1.13525V15.2504L2.0066 12.9122C1.74693 12.6513 1.32493 12.6503 1.06403 12.9099C0.803089 13.1697 0.802123 13.5916 1.06176 13.8526L4.52758 17.3352C4.52778 17.3354 4.52801 17.3356 4.52821 17.3358C4.78788 17.596 5.21125 17.5968 5.47178 17.3358C5.47198 17.3356 5.47222 17.3354 5.47242 17.3352L8.93824 13.8526C9.19784 13.5917 9.19694 13.1697 8.93597 12.91Z" fill="#FF4141"/>
</svg>
