<svg width="24" height="24" viewBox="0 0 24 24" fill="none" xmlns="http://www.w3.org/2000/svg">
<path d="M12.2157 9.63456V10.6002C12.2157 10.9069 12.2797 11.1642 12.4056 11.3647C12.5795 11.6413 12.8649 11.7999 13.189 11.7999C13.5065 11.7999 13.822 11.6516 14.1268 11.3594L17.4525 8.16995C18.1825 7.46967 18.1825 6.33022 17.4523 5.62994L14.1268 2.44048C13.822 2.14815 13.5065 2 13.189 2C12.7046 2 12.2157 2.37102 12.2157 3.19967V4.07668C7.49406 4.3441 3.58532 7.81915 3.0044 12.3689C2.97185 12.623 3.12251 12.8662 3.3708 12.9604C3.44108 12.9871 3.51427 13 3.58654 13C3.76958 13 3.94713 12.9178 4.0602 12.7696C5.61838 10.7278 8.12021 9.50883 10.7525 9.50883C11.2404 9.50883 11.7307 9.55103 12.2157 9.63456ZM4.70086 10.4849C5.9779 7.35698 9.1563 5.1855 12.8024 5.1855C13.1265 5.1855 13.3891 4.93361 13.3891 4.62281V3.32467L16.6227 6.42561C16.8953 6.68718 16.8953 7.11271 16.6227 7.37427L13.3891 10.4752V9.17693C13.3891 8.9161 13.2022 8.68941 12.9375 8.62934C12.2184 8.46624 11.4832 8.38345 10.7525 8.38345C9.23987 8.38345 7.73517 8.73455 6.40098 9.39893C5.79638 9.69991 5.22555 10.0654 4.70086 10.4849Z" fill="white"/>
<path d="M20.6292 11.0395C20.3809 10.9453 20.0975 11.0238 19.9398 11.2304C18.3816 13.2721 15.8799 14.4911 13.2475 14.4911C12.7598 14.4911 12.2694 14.4489 11.7843 14.3654V13.3997C11.7843 12.5711 11.2955 12.2001 10.811 12.2001C10.4935 12.2001 10.178 12.3483 9.87334 12.6407L6.54765 15.83C5.81745 16.5303 5.81745 17.6698 6.54765 18.3702L9.87334 21.5595C10.178 21.8519 10.4935 22 10.811 22C11.2954 22 11.7843 21.629 11.7843 20.8003V19.9233C16.5061 19.6559 20.4147 16.1808 20.9956 11.6312C21.0281 11.377 20.8775 11.1337 20.6292 11.0395ZM11.1976 18.8145C10.8735 18.8145 10.6109 19.0664 10.6109 19.3772V20.6753L7.37747 17.5745C7.10473 17.3128 7.10473 16.8873 7.37731 16.6258L10.6109 13.5247V14.823C10.6109 15.084 10.7979 15.3107 11.0627 15.3708C11.7819 15.5337 12.517 15.6165 13.2475 15.6165C14.7603 15.6165 16.265 15.2654 17.599 14.6012C18.2036 14.3 18.7745 13.9347 19.2991 13.5152C18.0221 16.643 14.8437 18.8145 11.1976 18.8145Z" fill="white"/>
</svg>
