<svg width="24" height="24" viewBox="0 0 24 24" fill="none" xmlns="http://www.w3.org/2000/svg">
<path d="M21.7595 9.36577C21.5068 9.13248 21.1763 8.97695 20.8069 8.97695C20.8263 8.97695 20.8458 8.97695 20.8652 8.97695V6.9745C20.8652 6.15797 20.5347 5.41921 19.9903 4.87485C19.446 4.3305 18.7072 4 17.8907 4H4.8262C4.00967 4 3.27091 4.3305 2.72655 4.87485C2.1822 5.41921 1.8517 6.15797 1.8517 6.9745V17.0256C1.8517 17.8421 2.1822 18.5809 2.72655 19.1253C3.27091 19.6696 4.00967 20.0001 4.8262 20.0001H17.8907C18.7072 20.0001 19.446 19.6696 19.9903 19.1253C20.5347 18.5809 20.8652 17.8421 20.8652 17.0256V15.0037C20.8458 15.0037 20.8263 15.0037 20.8069 15.0037C21.1763 15.0037 21.5068 14.8482 21.7595 14.6149C21.9928 14.3816 22.1483 14.0317 22.1483 13.6623V10.3184C22.1483 9.94901 21.9928 9.61851 21.7595 9.36577ZM19.7959 17.0062C19.7959 17.5311 19.5821 17.9977 19.2321 18.3476C18.8822 18.6975 18.4156 18.9114 17.8907 18.9114H4.8262C4.30129 18.9114 3.8347 18.6975 3.48476 18.3476C3.13482 17.9977 2.92097 17.5311 2.92097 17.0062V6.9745C2.92097 6.44959 3.13482 5.983 3.48476 5.63306C3.8347 5.28312 4.30129 5.06927 4.8262 5.06927H17.8907C18.4156 5.06927 18.8822 5.28312 19.2321 5.63306C19.5821 5.983 19.7959 6.44959 19.7959 6.9745V8.97695H13.7692C12.9526 8.97695 12.2333 9.30745 11.6889 9.83236C11.164 10.3573 10.8335 11.096 10.8335 11.9126V12.0487C10.8335 12.8652 11.164 13.5845 11.6889 14.1289C12.2139 14.6538 12.9526 14.9843 13.7692 14.9843H19.7959V17.0062ZM21.079 13.6623C21.079 13.74 21.0402 13.8178 21.0013 13.8567C20.943 13.915 20.8846 13.9345 20.8069 13.9345H13.7692C13.2637 13.9345 12.7777 13.7206 12.4472 13.3901C12.1167 13.0596 11.9028 12.5736 11.9028 12.0681V11.932C11.9028 11.4071 12.1167 10.9405 12.4472 10.61C12.7971 10.2601 13.2637 10.0657 13.7692 10.0657H20.8069C20.8846 10.0657 20.9624 10.1045 21.0013 10.1434C21.0596 10.2017 21.079 10.2601 21.079 10.3378V13.6623Z" fill="white"/>
<path d="M13.9052 11.1155C13.6719 11.1155 13.458 11.2127 13.3025 11.3682C13.147 11.5237 13.0498 11.7376 13.0498 11.9709C13.0498 12.2042 13.147 12.418 13.3025 12.5736C13.458 12.7291 13.6719 12.8263 13.9052 12.8263C14.1385 12.8263 14.3523 12.7291 14.5273 12.5736C14.6828 12.418 14.78 12.2042 14.78 11.9514C14.78 11.7182 14.6828 11.5043 14.5273 11.3293C14.3523 11.2127 14.1385 11.1155 13.9052 11.1155Z" fill="white"/>
</svg>
